#N canvas 611 24 616 589 10;
#X obj 80 184 / 127;
#X obj 79 147 sel 0;
#X obj 180 300 pack f f;
#X msg 151 370 0 \$2;
#X obj 82 399 vline~;
#X obj 81 286 pack f f f f;
#X msg 81 333 \$1 \$2 \, \$4 \$3 \$2;
#X obj 272 212 *;
#X obj 82 446 outlet~ amp;
#X obj 78 25 inlet velocity;
#X obj 199 76 route attack decay sustain release;
#X obj 198 25 inlet settings;
#X obj 475 302 outlet releaseTime;
#X obj 169 189 f;
#X obj 226 189 f;
#X obj 390 183 f;
#X obj 194 153 d 10;
#X obj 252 154 d 200;
#X obj 319 156 d 1;
#X obj 414 159 d 200;
#X obj 81 242 t f f;
#X connect 0 0 20 0;
#X connect 1 0 2 0;
#X connect 1 1 0 0;
#X connect 2 0 3 0;
#X connect 3 0 4 0;
#X connect 4 0 8 0;
#X connect 5 0 6 0;
#X connect 6 0 4 0;
#X connect 7 0 5 3;
#X connect 9 0 1 0;
#X connect 10 0 13 0;
#X connect 10 1 14 0;
#X connect 10 2 7 1;
#X connect 10 3 15 0;
#X connect 11 0 10 0;
#X connect 13 0 5 1;
#X connect 14 0 5 2;
#X connect 15 0 2 1;
#X connect 15 0 12 0;
#X connect 16 0 13 0;
#X connect 17 0 14 0;
#X connect 18 0 7 1;
#X connect 19 0 15 0;
#X connect 20 0 5 0;
#X connect 20 1 7 0;
