#N canvas 155 54 1094 495 10;
#X declare -path common_pd;
#X obj 243 7 inlet type;
#X obj 78 362 outlet~;
#X obj 110 244 osc/triangle~;
#X obj 216 247 osc/saw~;
#X obj 540 96 f;
#X obj 541 8 inlet phase;
#X obj 45 9 inlet frequency;
#X obj 45 243 osc/sin~;
#X obj 278 247 osc/invertedSaw~;
#X obj 243 42 t a;
#X obj 828 336 sig~;
#X obj 849 193 ifSymbol random;
#X obj 914 305 change;
#X obj 843 277 loadbang;
#X msg 834 307 0;
#X obj 926 272 osc/random;
#X obj 503 245 osc/square25~;
#X obj 618 248 osc/square10~;
#X obj 401 247 osc/square50~;
#X obj 780 338 *~;
#X obj 410 305 *~ 0.707;
#X obj 106 283 *~ 1.22;
#X obj 317 7 dSym sin;
#X obj 838 14 declare -path common_pd;
#X obj 581 65 d 0;
#X connect 0 0 9 0;
#X connect 2 0 21 0;
#X connect 3 0 1 0;
#X connect 4 0 2 2;
#X connect 4 0 7 2;
#X connect 4 0 3 2;
#X connect 4 0 8 2;
#X connect 4 0 15 2;
#X connect 4 0 16 2;
#X connect 4 0 17 2;
#X connect 4 0 18 2;
#X connect 5 0 4 0;
#X connect 6 0 2 0;
#X connect 6 0 7 0;
#X connect 6 0 3 0;
#X connect 6 0 8 0;
#X connect 6 0 15 0;
#X connect 6 0 16 0;
#X connect 6 0 17 0;
#X connect 6 0 18 0;
#X connect 7 0 1 0;
#X connect 8 0 1 0;
#X connect 9 0 7 1;
#X connect 9 0 2 1;
#X connect 9 0 3 1;
#X connect 9 0 8 1;
#X connect 9 0 11 0;
#X connect 9 0 16 1;
#X connect 9 0 17 1;
#X connect 9 0 18 1;
#X connect 10 0 19 0;
#X connect 11 0 15 1;
#X connect 11 0 19 1;
#X connect 12 0 10 0;
#X connect 13 0 14 0;
#X connect 14 0 10 0;
#X connect 15 0 12 0;
#X connect 16 0 20 0;
#X connect 17 0 20 0;
#X connect 18 0 20 0;
#X connect 19 0 1 0;
#X connect 20 0 1 0;
#X connect 21 0 1 0;
#X connect 22 0 9 0;
#X connect 24 0 4 0;
