#N canvas 82 103 468 300 10;
#X obj 106 176 pow~ 2;
#X obj 106 134 adsr~;
#X obj 106 54 t f f;
#N canvas 0 22 458 373 manageSwitch 0;
#X obj 51 66 inlet releaseTime;
#X obj 213 285 del;
#X obj 306 274 1;
#X obj 213 314 0;
#X obj 214 224 f;
#X obj 214 132 sel 0;
#X obj 214 158 bang;
#X obj 213 250 t b f;
#X obj 229 193 + 1;
#X obj 307 187 t b b;
#X msg 332 211 stop;
#X obj 213 348 outlet;
#X obj 216 50 inlet velocity;
#X connect 0 0 8 0;
#X connect 1 0 3 0;
#X connect 2 0 11 0;
#X connect 3 0 11 0;
#X connect 4 0 7 0;
#X connect 5 0 6 0;
#X connect 5 1 9 0;
#X connect 6 0 4 0;
#X connect 7 0 1 0;
#X connect 7 1 1 1;
#X connect 8 0 4 1;
#X connect 9 0 2 0;
#X connect 9 1 10 0;
#X connect 10 0 1 0;
#X connect 12 0 5 0;
#X restore 261 171 pd manageSwitch;
#X obj 39 25 inlet~;
#X obj 42 270 outlet~;
#X obj 42 205 *~;
#X obj 260 245 outlet dsp_switch;
#X obj 106 25 inlet velocity;
#X obj 240 24 inlet adsr_settings;
#X text 150 55 /!/ velocity 0...127;
#X connect 0 0 6 1;
#X connect 1 0 0 0;
#X connect 1 1 3 0;
#X connect 2 0 1 0;
#X connect 2 1 3 1;
#X connect 3 0 7 0;
#X connect 4 0 6 0;
#X connect 6 0 5 0;
#X connect 8 0 2 0;
#X connect 9 0 1 1;
