#N canvas 0 22 450 300 10;
#X obj 41 18 inlet;
#X obj 107 16 inlet;
#X obj 84 59 t b f;
#X obj 44 96 + 0;
#X obj 43 140 outlet;
#X text 208 116 b+ bangs output whatever;
#X connect 0 0 3 0;
#X connect 1 0 2 0;
#X connect 2 0 3 0;
#X connect 2 1 3 1;
#X connect 3 0 4 0;
