#N canvas 319 244 450 300 10;
#X obj 41 18 inlet;
#X obj 107 16 inlet;
#X obj 84 59 t b f;
#X obj 43 140 outlet;
#X text 208 116 b* bangs output whatever;
#X obj 44 96 / 1;
#X connect 0 0 5 0;
#X connect 1 0 2 0;
#X connect 2 0 5 0;
#X connect 2 1 5 1;
#X connect 5 0 3 0;
