#N canvas 402 264 450 300 10;
#X obj 134 70 inlet bpm;
#X obj 134 234 outlet barDuration;
#X obj 134 179 * 4;
#X obj 134 141 /;
#X msg 134 107 60 \$1;
#X obj 134 206 * 1000;
#X connect 0 0 4 0;
#X connect 2 0 5 0;
#X connect 3 0 2 0;
#X connect 4 0 3 0;
#X connect 5 0 1 0;
