#N canvas 169 49 450 300 10;
#X obj 117 18 loadbang;
#X obj 117 40 symbol \$1;
#X obj 42 20 inlet;
#X obj 49 201 outlet;
#X obj 42 123 select symbol;
#X obj 41 69 symbol;
#X msg 42 156 1;
#X msg 117 157 0;
#X connect 0 0 1 0;
#X connect 1 0 4 1;
#X connect 2 0 5 0;
#X connect 4 0 6 0;
#X connect 4 1 7 0;
#X connect 5 0 4 0;
#X connect 6 0 3 0;
#X connect 7 0 3 0;
