#N canvas 643 196 450 300 10;
#X obj 209 29 loadbang;
#X obj 209 59 \$1;
#X obj 249 60 \$2;
#X obj 53 25 inlet;
#X obj 219 132 -;
#X floatatom 219 153 5 0 0 0 - - -, f 5;
#X obj 174 202 *;
#X obj 187 227 +;
#X obj 184 261 outlet;
#X obj 166 93 t f f;
#X connect 0 0 1 0;
#X connect 0 0 2 0;
#X connect 1 0 9 0;
#X connect 2 0 4 0;
#X connect 3 0 6 0;
#X connect 4 0 5 0;
#X connect 5 0 6 1;
#X connect 6 0 7 0;
#X connect 7 0 8 0;
#X connect 9 0 4 1;
#X connect 9 1 7 1;
