#N canvas 0 22 450 300 10;
#X obj 51 31 inlet;
#X obj 111 20 inlet YesNo;
#X obj 65 238 outlet Yes;
#X obj 142 238 outlet No;
#X obj 66 141 spigot;
#X obj 95 80 t f f;
#X obj 124 140 spigot;
#X obj 144 115 == 0;
#X obj 105 50 tgl 15 0 empty empty empty 17 7 0 10 -262144 -1 -1 0
1;
#X obj 154 47 d 0;
#X connect 0 0 4 0;
#X connect 0 0 6 0;
#X connect 1 0 8 0;
#X connect 4 0 2 0;
#X connect 5 0 4 1;
#X connect 5 1 7 0;
#X connect 6 0 3 0;
#X connect 7 0 6 1;
#X connect 8 0 5 0;
#X connect 9 0 8 0;
