#N canvas 1593 55 450 300 10;
#X obj 59 89 phasor~;
#X obj 56 60 inlet frequency;
#X obj 59 208 outlet~;
#X obj 280 61 inlet phase;
#X obj 173 156 switch~;
#X obj 175 58 inlet;
#X msg 176 121 1;
#X msg 236 119 0;
#X obj 61 183 *~ 2;
#X obj 59 123 *~ -1;
#X obj 173 93 route invertedSaw;
#X obj 60 163 +~ 0.5;
#X connect 0 0 9 0;
#X connect 1 0 0 0;
#X connect 3 0 0 1;
#X connect 5 0 10 0;
#X connect 6 0 4 0;
#X connect 7 0 4 0;
#X connect 8 0 2 0;
#X connect 9 0 11 0;
#X connect 10 0 6 0;
#X connect 10 1 7 0;
#X connect 11 0 8 0;
