#N canvas 554 195 490 388 10;
#X obj 178 134 freqToMs;
#X obj 95 198 metro;
#X obj 51 86 loadbang;
#X obj 96 271 * 2;
#X obj 96 293 - 1;
#X obj 126 38 inlet freq;
#X obj 99 329 outlet;
#X obj 349 30 inlet phase;
#X obj 98 221 random 2000;
#X obj 98 246 / 2000;
#X obj 177 155 / 2;
#X obj 238 20 inlet on/off;
#X msg 50 138 0;
#X obj 236 45 t f f;
#X obj 285 90 spigot;
#X obj 106 130 bng 15 250 50 0 empty empty empty 17 7 0 10 -262144
-1 -1;
#X connect 0 0 10 0;
#X connect 1 0 8 0;
#X connect 2 0 12 0;
#X connect 3 0 4 0;
#X connect 4 0 6 0;
#X connect 5 0 0 0;
#X connect 7 0 14 0;
#X connect 8 0 9 0;
#X connect 9 0 3 0;
#X connect 10 0 1 1;
#X connect 11 0 13 0;
#X connect 12 0 1 0;
#X connect 13 0 1 0;
#X connect 13 1 14 1;
#X connect 14 0 15 0;
#X connect 15 0 1 0;
