#N canvas 0 22 433 242 10;
#X obj 80 95 phasor~;
#X obj 78 117 -~ 0.5;
#X obj 75 139 *~ 2;
#X obj 74 43 inlet frequency;
#X obj 75 161 outlet~;
#X obj 301 67 inlet phase;
#X obj 194 162 switch~;
#X obj 196 64 inlet;
#X msg 197 127 1;
#X msg 257 125 0;
#X obj 194 99 route saw;
#X connect 0 0 1 0;
#X connect 1 0 2 0;
#X connect 2 0 4 0;
#X connect 3 0 0 0;
#X connect 5 0 0 1;
#X connect 7 0 10 0;
#X connect 8 0 6 0;
#X connect 9 0 6 0;
#X connect 10 0 8 0;
#X connect 10 1 9 0;
