#N canvas 0 22 718 468 10;
#X obj 23 305 outlet~;
#X obj 20 16 inlet frequency;
#X obj 218 20 inlet phase;
#X obj 142 153 switch~;
#X obj 134 16 inlet;
#X msg 136 111 1;
#X msg 182 110 0;
#X obj 20 219 square~;
#X obj 21 180 phasor~;
#X obj 331 131 loadbang;
#X obj 27 257 *~ 2;
#X obj 27 279 -~ 1;
#X obj 130 82 route square25;
#X msg 331 153 0.25;
#X connect 1 0 8 0;
#X connect 2 0 8 1;
#X connect 4 0 12 0;
#X connect 5 0 3 0;
#X connect 6 0 3 0;
#X connect 7 0 10 0;
#X connect 8 0 7 0;
#X connect 9 0 13 0;
#X connect 10 0 11 0;
#X connect 11 0 0 0;
#X connect 12 0 5 0;
#X connect 12 1 6 0;
#X connect 13 0 7 1;
