#N canvas 256 147 707 475 10;
#X obj 22 321 outlet~;
#X obj 20 16 inlet frequency;
#X obj 218 20 inlet phase;
#X obj 142 153 switch~;
#X obj 134 16 inlet;
#X msg 136 111 1;
#X msg 182 110 0;
#X obj 130 82 route square;
#X obj 20 219 square~;
#X obj 21 180 phasor~;
#X obj 331 131 loadbang;
#X msg 331 153 0.5;
#X obj 21 245 *~ 2;
#X obj 21 267 -~ 1;
#X connect 1 0 9 0;
#X connect 2 0 9 1;
#X connect 4 0 7 0;
#X connect 5 0 3 0;
#X connect 6 0 3 0;
#X connect 7 0 5 0;
#X connect 7 1 6 0;
#X connect 8 0 12 0;
#X connect 9 0 8 0;
#X connect 10 0 11 0;
#X connect 11 0 8 1;
#X connect 12 0 13 0;
#X connect 13 0 0 0;
