#N canvas 2186 22 482 401 10;
#X obj 31 353 outlet~;
#X obj 19 78 phasor~;
#X obj 17 188 clip~ 0 1;
#X obj 84 187 clip~ 0 1;
#X obj 72 151 *~ -1;
#X obj 17 33 inlet frequency;
#X obj 23 103 *~ 2;
#X obj 12 128 -~ 1;
#X obj 32 236 *~ 2;
#X obj 31 256 -~ 1;
#X obj 282 42 inlet phase;
#X obj 160 158 switch~;
#X obj 148 87 route triangle;
#X obj 135 37 inlet;
#X msg 153 112 1;
#X msg 214 114 0;
#X connect 1 0 6 0;
#X connect 2 0 8 0;
#X connect 3 0 8 0;
#X connect 4 0 3 0;
#X connect 5 0 1 0;
#X connect 6 0 7 0;
#X connect 7 0 4 0;
#X connect 7 0 2 0;
#X connect 8 0 9 0;
#X connect 9 0 0 0;
#X connect 10 0 1 1;
#X connect 12 0 14 0;
#X connect 12 1 15 0;
#X connect 13 0 12 0;
#X connect 14 0 11 0;
#X connect 15 0 11 0;
