#N canvas 552 273 450 300 10;
#X obj 76 153 deqfilter~, f 16;
#X obj 75 9 inlet~;
#X obj 76 177 outlet~;
#X obj 107 35 inlet freq;
#X obj 154 125 ../common_pd/d 0.75;
#X obj 133 58 ../common_pd/d 22000;
#X obj 138 102 inlet Q;
#X connect 0 0 2 0;
#X connect 1 0 0 0;
#X connect 3 0 0 1;
#X connect 4 0 0 2;
#X connect 5 0 0 1;
#X connect 6 0 0 2;
